<svg xmlns="http://www.w3.org/2000/svg" width="205.481" height="25.294" viewBox="0 0 205.481 25.294">
  <g id="SpaceX-Logo_1_" data-name="SpaceX-Logo (1)" transform="translate(0)">
    <path id="Path_15" data-name="Path 15" d="M66.229,15.094H48.854l-.644.481V31.032h4.81v-5.8l.459-.411h12.75c3.219,0,4.729-.866,4.729-3.089V18.187c0-2.226-1.509-3.093-4.729-3.093m0,5.714c0,1.047-.693,1.265-2.2,1.265h-10.5l-.512-.5V18.264l.459-.42H64.027c1.509,0,2.2.215,2.2,1.267Z" transform="translate(-18.34 -5.742)" fill="#fff"/>
    <path id="Path_16" data-name="Path 16" d="M94.427,17.9l4.139,6.064-.229.587H89.183l-2.336,2.874h13.625l.944.575,2.115,2.918h5.5L96.97,14.775" transform="translate(-33.038 -5.621)" fill="#fff"/>
    <path id="Path_17" data-name="Path 17" d="M184.415,31.183v-4.29l.5-.428h9.208V23.734H179.524V34.322h21.528V31.6h-16.12" transform="translate(-68.294 -9.029)" fill="#fff"/>
    <rect id="Rectangle_7" data-name="Rectangle 7" width="21.755" height="3.004" transform="translate(111.23 9.352)" fill="#fff"/>
    <path id="Path_18" data-name="Path 18" d="M137.041,17.937h17.527c-.27-2.229-1.653-2.847-5.161-2.847H136.854c-3.959,0-5.221.773-5.221,3.768v8.4c0,3,1.263,3.771,5.221,3.771h12.552c3.559,0,4.923-.669,5.016-2.98H137.041l-.515-.485V18.262" transform="translate(-50.075 -5.741)" fill="#fff"/>
    <path id="Path_19" data-name="Path 19" d="M18.174,21.3H5.424l-.375-.413V18.163l.374-.289H22.611l.235-.574c-.586-1.506-2.1-2.209-4.917-2.209H5.988c-3.956,0-5.221.773-5.221,3.768v1.762c0,3,1.265,3.771,5.221,3.771H18.71l.4.351v2.851l-.326.445H4.232v-.014H.42s-.436.219-.419.321c.325,2.1,1.753,2.689,5.17,2.689h13c3.955,0,5.258-.773,5.258-3.771v-2.2c0-2.994-1.3-3.765-5.258-3.765" transform="translate(0 -5.741)" fill="#fff"/>
    <path id="Path_20" data-name="Path 20" d="M232.092,14.988h-7.157l-.388.739,7.948,5.794c1.506-.872,3.144-1.755,4.926-2.627" transform="translate(-85.422 -5.702)" fill="#fff"/>
    <path id="Path_21" data-name="Path 21" d="M247.075,30.629l6.986,5.094H261.3l.3-.675-10.431-7.635q-2.078,1.525-4.1,3.216" transform="translate(-93.992 -10.428)" fill="#fff"/>
    <path id="Path_22" data-name="Path 22" d="M230.694,25.283h-6.475l-.547-.857c4.4-4.251,24.094-22.473,66.9-24.426,0,0-35.927,1.212-59.875,25.283" transform="translate(-85.089)" fill="#fff"/>
  </g>
</svg>
